<svg xmlns="http://www.w3.org/2000/svg" viewBox="0 0 360 360" role="img" aria-labelledby="title desc">
  <title id="title">栖霞红叶头像占位</title>
  <desc id="desc">红色枫叶主题的栖霞头像占位图，可替换为站主头像。</desc>
  <defs>
    <linearGradient id="bg" x1="0" x2="1" y1="0" y2="1">
      <stop offset="0" stop-color="#fff7f2"/>
      <stop offset="0.55" stop-color="#ffd8ce"/>
      <stop offset="1" stop-color="#b8242f"/>
    </linearGradient>
    <linearGradient id="leaf" x1="0" x2="1" y1="0" y2="1">
      <stop offset="0" stop-color="#f18d4c"/>
      <stop offset="1" stop-color="#9d1523"/>
    </linearGradient>
  </defs>
  <rect width="360" height="360" rx="76" fill="url(#bg)"/>
  <circle cx="180" cy="182" r="112" fill="#fffaf7" opacity="0.72"/>
  <path fill="url(#leaf)" d="M183 62c18 38 40 61 78 65-25 18-31 42-20 75-27-12-49-8-68 16-4-31-18-49-44-61 32-8 49-39 54-95Z"/>
  <path fill="#7c1020" opacity="0.24" d="M184 108c6 44-3 91-28 139 42-40 61-82 60-126-9 1-21-4-32-13Z"/>
  <text x="180" y="254" text-anchor="middle" font-family="'Noto Sans SC','Microsoft YaHei',sans-serif" font-size="72" font-weight="800" fill="#8f1420">栖</text>
  <path d="M118 287c38 16 83 17 124 1" fill="none" stroke="#8f1420" stroke-width="8" stroke-linecap="round" opacity="0.28"/>
</svg>
